<svg enable-background="new 0 0 840.1 238" viewBox="0 0 840.1 238" xmlns="http://www.w3.org/2000/svg"><g fill="#ff8000"><path d="m832.1 95.6c.5 0 .8-.3.8-.8s-.3-.8-.8-.8h-.8v1.6zm-1.7-2.3h1.9c.9 0 1.5.6 1.5 1.5 0 .7-.5 1.2-.9 1.3s.1.1.2.3l.9 1.8h-1l-.9-1.9h-.8v1.9h-.9zm1.6 6.2c2.1 0 3.6-1.7 3.6-3.8s-1.6-3.8-3.6-3.8-3.6 1.7-3.6 3.8 1.6 3.8 3.6 3.8zm0-8.4c2.5 0 4.6 2.1 4.6 4.7s-2 4.7-4.6 4.7c-2.5 0-4.5-2.1-4.5-4.7 0-2.7 2-4.7 4.5-4.7z"/><path d="m809.3 172c.1 3.4-1 6.6-2.9 9.2l.1.1.1-.1c-1.8 2.2-4.6 3.3-7.4 3.1h-11.3v-24.2h11.4c2.8-.2 5.6.9 7.4 3.1l-.1-.1c1.8 2.6 2.8 5.8 2.7 8.9zm-21.5-56.5h10c2.5-.2 4.9.8 6.7 2.6l.1.1c1.7 2.3 2.6 5.2 2.3 8.1.3 3.1-.7 6.2-2.5 8.7-1.6 1.9-4.1 2.9-6.6 2.8h-10zm44.7 56.4v.1c0-9.4-4.2-18.3-11.6-24.2l.1.1.1-.1c6-5.8 9.5-13.8 9.5-22.2v.4c.3-8.7-2.7-17.3-8.5-23.9l.1.2c-6.2-6.9-15.1-10.8-24.5-10.7h-31.8c-1.1 0-2 .9-2 2v112c0 1.1.9 2 2 2h33.1c10 .1 19.6-4.2 26.1-11.9l-.1.1c5.4-6.8 8-15.3 7.5-23.9"/><path d="m746.5 173.4v-79.7c-.1-1-.9-1.8-1.8-1.8h-20.4c-1-.1-1.9.7-2 1.7v79.8c.1 3.2-.7 6.4-2.6 8.9-3.3 3.7-9 4-12.7.7-.3-.2-.5-.4-.7-.7-1.9-2.6-2.8-5.7-2.6-8.9v-79.7c-.1-1-.9-1.8-2-1.8h-20.4c-1 0-1.9.7-2 1.8v79.9c-.7 9.4 2.4 18.8 8.6 26.1l.2.2c14.3 12.8 36 12.7 50.1-.4l-.3.2c6.2-7.3 9.3-16.7 8.6-26.3"/><path d="m659.9 92h-19.9c-1.1 0-2 .9-2 2v43.4h-20.1v-43.4c0-1.1-.9-2-2-2h-19.8c-1.1 0-2 .9-2 2v111.7c0 1.1.9 2 2 2h19.9c1.1 0 2-.9 2-2v-44.9h20.1v44.9c0 1.1.9 2 2 2h19.8c1.1 0 2-.9 2-2v-111.7c0-1.1-.9-2-2-2z"/><path d="m555.9 172c.1 3.4-1 6.6-2.9 9.2l.1.1.1-.1c-1.8 2.2-4.6 3.3-7.4 3.1h-11.3v-24.2h11.4c2.8-.2 5.6.9 7.4 3.1l-.1-.1c1.9 2.6 2.9 5.8 2.7 8.9zm-21.4-56.5h10c2.5-.2 4.9.8 6.7 2.6l.1.1c1.7 2.3 2.6 5.2 2.3 8.1.3 3.1-.7 6.2-2.5 8.7-1.6 1.9-4.1 2.9-6.6 2.8h-10zm44.9 56.4v.3c0-9.4-4.2-18.3-11.6-24.2l.1-.1c6-5.8 9.4-13.8 9.4-22.1.1-8.5-2.9-16.7-8.5-23.1v.1c-6.2-6.9-15.1-10.8-24.5-10.7h-31.6c-1.1 0-2 .9-2 2v111.7c0 1.1.9 2 2 2h33.3c10 .1 19.6-4.2 26.1-11.9l-.1.1c5.2-7 7.8-15.5 7.4-24.1"/><path d="m493.2 173.4v-79.7c-.1-1-.9-1.8-1.9-1.8h-20.3c-1 0-1.9.7-2 1.8v79.7c.1 3.3-.8 6.5-2.8 9.1-3.3 3.6-8.9 3.9-12.6.6-.3-.2-.5-.4-.7-.7-1.9-2.6-2.8-5.7-2.6-8.9v-79.8c0-1-.8-1.8-1.8-1.8h-.1-20.4c-1-.1-1.9.7-2 1.7v79.8c-.7 9.6 2.4 19 8.6 26.3 6.6 6.6 15.6 10.1 24.8 9.8h.3c9.3.3 18.3-3.2 24.8-9.8 6.3-7.3 9.4-16.7 8.7-26.3"/><path d="m385.3 137.2c-2 2.2-4.9 3.4-7.8 3.2h-9.7v-25h9.7c3-.1 5.9 1 7.9 3.2v-.1c2.1 2.5 3.1 5.6 3 8.9v.1c.1 3.7-.9 7-3.1 9.7zm12.3 20.6c2.1-1.5 4-3.1 5.6-5l-.1.1c6.1-7 9.3-16.1 8.9-25.3v-.2c.2-9.2-3.2-18-9.3-24.8l.4.4c-6.1-6.9-14.8-10.9-23.9-11.2h-33.3c-1.1 0-2 .9-2 2v111.8c0 1.1.9 2 2 2h19.8c1.1 0 2-.9 2-2v-41.4h7.3l12.5 42.2c.2.8 1 1.4 1.9 1.4h21.1c.6 0 1.2-.3 1.6-.8.3-.5.3-1.2 0-1.8z"/><path d="m320 99.9c-6.6-6.6-15.6-10.1-24.9-9.8h-.1c-9.3-.3-18.3 3.2-24.9 9.8l.2-.3c-6.3 7.3-9.5 16.7-9 26.3v47.6c-.7 9.6 2.4 19 8.6 26.3 6.6 6.6 15.6 10.1 24.8 9.8h.4c9.3.3 18.3-3.2 24.9-9.8 6.2-7.3 9.2-16.8 8.6-26.4v-26c-.1-1.1-1-2-2.1-2h-29.3c-1.1 0-2 .9-2.1 2v19.5c.1 1.2 1 2.1 2.1 2.1h8.1v4.5c.2 3.4-.8 6.7-2.8 9.4l.1-.1c-1.8 2.2-4.5 3.4-7.3 3.2h-.1c-2.8.2-5.5-.9-7.3-3.1-2-2.7-3.1-5.9-2.9-9.3v-47.3c-.1-3.4.9-6.8 3.1-9.5 1.8-2.2 4.5-3.4 7.3-3.2h.1c2.8-.2 5.5.9 7.3 3.1l.1.1c1.8 2.8 2.7 6.1 2.4 9.4v4.4c.1 1 1 1.8 2 1.8h19.8c1 0 1.9-.7 2-1.8v-4.5c.5-9.6-2.8-19-9.1-26.2z"/><path d="m203.8 73.2c-.4-.6-.8-1.2-.8-2-2.1-23.9-5.5-39.7-5.5-39.7-.5-2.7-2.9-4.7-5.6-5.1l-19.1-2.3c-.2 0-.3 0-.5 0-2.2 0-4 1.8-4 4v6.6c0 .1-.1.2-.2.2s-.1 0-.2-.1c-11.4-10.3-24.3-20.3-38.5-29-2.7-1.8-5.9-2.9-9.4-2.9-3.5 0-6.7 1-9.4 2.9-65.9 40.8-102.1 106.8-103.5 110.4-.4.8-.6 1.8-.6 2.8 0 3 2.1 5.6 4.9 6.3l18.9 3.6c2.5.7 4.4 2.9 4.7 5.5.2 3.3 3.7 78.1 8.2 97.4.7 2.8 3.3 4.9 6.3 4.9h.1c11.1-.3 21.2-.5 32.1-.6h.1.8c1.2 0 2.1-1 2.1-2.1 0 0 0 0 0-.1-.4-6.5-1.4-21.4-2.2-37.1 0-.4-.1-.9-.1-1.3-.1-1.4-.8-2.6-1.9-3.2-5.7-3.4-9.6-9.5-9.9-16.5-1-26.2-1.5-56.5-.1-80.2.1-2 1.7-3.6 3.7-3.6 2.1 0 3.8 1.6 3.9 3.7v.3c-.9 15.8-1 34.5-.7 52.9 0 2.5 2.1 4.5 4.6 4.4 2.5 0 4.5-2.1 4.4-4.6-.3-18.5-.3-37.3.7-53.2.1-2 1.7-3.6 3.7-3.6 2.1 0 3.8 1.6 3.9 3.7v.3c-.9 15.7-1 34.3-.7 52.6 0 2.5 2.1 4.5 4.6 4.4 2.5 0 4.5-2.1 4.4-4.6-.3-18.5-.2-37.2.7-52.9.1-2 1.7-3.6 3.7-3.6 2.1 0 3.8 1.6 3.9 3.7v.3c-1.4 23-.9 52.2 0 77.8v.2.4.3c0 7-3.5 13.2-8.9 16.9-1 .7-1.6 1.7-1.7 3 0 0-.5 3.9 1.3 23 .8 8.3 1.4 14.1 1.7 16.7.1 1 1 1.8 2 1.8h1.8 11.3.7.7 14.2l10.7.1c1 0 1.9-.8 2-1.8 2.5-22.8 3.1-35.6 3.1-35.6 0-1.2-.9-2-2-2.2l-13.1-1.8c-2.1-.4-3.3-1.6-3.7-3.2-.3-.9-.2-2-.2-2 5.8-76 30.8-101.6 30.8-101.6.7-.8 1.2-1.1 1.2-1.1.7-.5 1.5-.8 2.4-.8 1.7 0 3.2 1.1 3.7 2.6 0 0 .2.5.3 1.8 2.2 23.9 1.1 64.6-.2 96.3-1.1 26.9-2.5 48.1-2.5 48.1 0 .9.7 1.6 1.6 1.6 7.1.1 14.1.3 21.5.4h.1c3 0 5.6-2.1 6.3-4.9 4.5-19.4 8.1-94.1 8.2-97.4.3-2.7 2.2-4.8 4.7-5.5l18.9-3.6c2.8-.7 4.9-3.3 4.9-6.3 0-1-.2-1.9-.6-2.8-.5-1.8-10.4-20.1-28.7-43"/></g></svg>