<?xml version="1.0" encoding="utf-8"?>
<svg viewBox="378.0401 392.8371 577.253 547.659" width="577.253" height="547.659" xmlns="http://www.w3.org/2000/svg">
  <defs>
    <clipPath clipPathUnits="userSpaceOnUse" id="clipPath16">
      <path d="M 0,1000 H 1000 V 0 H 0 Z" id="path14"/>
    </clipPath>
  </defs>
  <g id="g8" transform="matrix(1.3333332538604736, 0, 0, -1.3333332538604736, 0, 1333.333251953125)">
    <g id="g10">
      <g id="g12" clip-path="url(#clipPath16)">
        <g id="g18" transform="translate(567.1733,678.764)">
          <path d="m 0,0 c 1.256,-2.618 0.129,-5.723 5.25,-5.538 0.411,0.015 0.798,-0.039 1.171,-0.129 l -1.217,2.905 3.395,-3.801 0.724,-0.922 c 0.457,-0.47 0.892,-0.993 1.312,-1.548 4.536,-4.041 14.325,-11.444 14.325,-11.444 l -13.851,4.776 -0.011,0.01 c -0.21,0.048 -0.425,0.11 -0.649,0.206 -12.571,5.394 -25.991,6.708 -39.407,7.938 -3.919,0.359 -7.31,1.882 -10.494,3.991 -9.811,6.501 -19.987,8.706 -30.999,3.008 -2.843,-1.471 -5.927,-2.366 -9.133,-2.758 -1.179,-0.144 -2.742,-0.605 -3.232,0.67 -2.175,5.65 -6.138,3.062 -9.418,1.945 -3.942,-1.343 -7.625,-3.429 -11.479,-5.052 -4.408,-1.855 -8.732,-2.161 -13.292,0.078 -3.394,1.667 -6.889,1.315 -10.024,-1.447 -4.507,-3.971 -9.615,-7.338 -13.815,-14.173 15.669,3.379 33.005,14.459 47.933,13.633 -9.314,-3.215 -23.775,-8.617 -33.102,-11.791 -9.994,-3.402 -20.084,-6.536 -29.99,-10.17 -6.252,-2.294 -11.12,-6.788 -16.176,-11.099 -8.004,-6.824 -13.013,-15.539 -17.714,-24.603 -6.947,-13.391 -16.212,-25.344 -22.493,-39.265 -15.849,-35.13 -14.604,-70.177 -1.96,-105.58 9.412,-26.355 25.404,-48.744 45.777,-67.241 13.989,-12.701 30.491,-22.604 49.355,-28.067 19.729,-5.713 38.88,-4.789 58.817,-0.927 20.038,3.882 38.65,12.853 59.008,15.119 2.579,0.287 5.157,0.901 7.728,0.867 21.435,-0.285 44.683,15.118 52.584,35.117 1.057,2.674 3.676,5.765 -1.043,8.067 -1.474,0.72 -0.114,1.725 0.857,2.551 10.683,9.087 16.341,21.352 21.043,34.109 2.009,5.45 4.619,10.576 7.097,15.787 4.735,0.16 9.441,0.467 14.212,-0.051 6.509,-0.707 9.856,4.152 8.282,10.515 -0.984,3.979 -3.613,7.582 -2.939,11.958 3.016,2.888 6.744,4.513 10.576,5.956 2.733,-7.282 4.575,-14.656 3.562,-22.59 -0.253,-1.974 -1.187,-5.289 2.35,-5.737 0.588,-0.074 1.076,-0.006 1.495,0.158 l -2.837,32.785 c 0,0 0,14 -0.8,29.185 -0.8,15.184 -22.1,40.616 -22.1,40.616 l -0.6,19.199 -11.7,-4.799 -28.8,20.699 c 0,0 -30.3,7.801 -32.759,22.044 -1.507,8.735 1.111,12.565 3.363,14.224 -0.048,1.1 0.241,2.434 0.464,3.279 C 19.747,-12.174 11.719,-0.202 0,0" style="fill:#231815;fill-opacity:1;fill-rule:nonzero;stroke:none" id="path20"/>
        </g>
        <g id="g22" transform="translate(715.5903,488.0316)">
          <path d="m 0,0 c -2.324,10.601 -5.003,21.224 -17.557,24.666 -0.906,-7.069 -2.874,-14.003 -2.635,-21.221 0.031,-0.967 -0.032,-2.156 -0.554,-2.88 -1.042,-1.443 -1.563,-3.74 -3.256,-4.402 -0.419,-0.164 -0.907,-0.232 -1.495,-0.157 -3.537,0.448 -2.603,3.763 -2.35,5.736 1.014,7.934 -0.829,15.308 -3.562,22.59 -3.832,-1.442 -7.56,-3.068 -10.576,-5.956 -0.674,-4.376 1.955,-7.979 2.939,-11.958 1.574,-6.362 -1.773,-11.222 -8.282,-10.515 -4.771,0.518 -9.477,0.212 -14.212,0.052 -2.478,-5.211 -5.088,-10.338 -7.097,-15.788 -4.702,-12.756 -10.36,-25.022 -21.043,-34.109 -0.971,-0.826 -2.331,-1.83 -0.857,-2.55 4.719,-2.303 2.1,-5.394 1.043,-8.068 -7.901,-19.998 -31.149,-35.401 -52.584,-35.117 -2.571,0.035 -5.149,-0.58 -7.728,-0.867 -20.358,-2.265 -38.97,-11.237 -59.008,-15.119 -19.937,-3.861 -39.088,-4.786 -58.817,0.927 -18.864,5.463 -35.366,15.367 -49.355,28.067 -20.373,18.498 -36.365,40.886 -45.777,67.241 -12.644,35.403 -13.889,70.45 1.96,105.58 6.281,13.921 15.546,25.874 22.493,39.265 4.701,9.064 9.71,17.78 17.714,24.604 5.056,4.311 9.924,8.804 16.176,11.098 9.906,3.635 19.996,6.769 29.99,10.17 9.327,3.174 23.788,8.577 33.102,11.792 -14.928,0.825 -32.264,-10.254 -47.933,-13.634 4.2,6.835 9.308,10.202 13.815,14.173 3.135,2.763 6.63,3.114 10.024,1.448 4.56,-2.239 8.884,-1.934 13.292,-0.078 3.854,1.622 7.537,3.709 11.479,5.052 3.28,1.117 7.243,3.704 9.418,-1.945 0.49,-1.275 2.053,-0.815 3.232,-0.67 3.206,0.392 6.29,1.287 9.133,2.758 11.013,5.698 21.188,3.493 30.999,-3.008 3.184,-2.11 6.575,-3.633 10.494,-3.992 13.416,-1.229 26.836,-2.544 39.407,-7.937 0.224,-0.096 0.439,-0.159 0.649,-0.207 l 0.011,-0.009 13.851,-4.777 c 0,0 -9.789,7.404 -14.325,11.445 -0.42,0.555 -0.855,1.077 -1.312,1.547 l -0.724,0.922 -3.395,3.801 1.217,-2.904 c -0.373,0.09 -0.76,0.143 -1.171,0.128 -5.121,-0.184 -3.994,2.92 -5.25,5.538 11.719,-0.201 19.747,-12.173 28.646,-17.337 -0.223,-0.844 -0.512,-2.178 -0.464,-3.278 0.03,-0.671 0.184,-1.255 0.557,-1.587 1.35,-1.199 4.2,-2.4 4.2,-2.4 0,0 -0.922,5.246 -2.767,7.904 -0.082,4.068 -5.302,7.467 -7.456,9.391 -7.089,6.334 -15.583,10.583 -24.319,13.745 -9.532,3.451 -18.671,8.404 -28.27,11.731 l 0.018,-0.003 c 0,0 -0.082,0.028 -0.22,0.074 -0.374,0.124 -1.216,0.402 -2.35,0.77 -3.76,1.217 -10.686,3.399 -14.136,4.089 -3.839,0.768 -5.209,-0.695 -5.766,-1.498 -0.751,-0.057 -1.505,-0.126 -2.266,-0.223 -0.373,-0.047 -0.821,0.066 -1.16,0.244 -0.53,0.279 -1.063,0.53 -1.597,0.779 0.354,0.758 0.461,1.652 -0.686,2.048 -1.751,0.604 -8.902,1.644 -16.125,1.831 -5.063,0.337 -10.201,0.222 -15.34,0.322 -9.881,0.191 -19.268,-3.848 -29.078,-2.702 -4.276,0.499 -8.473,0.343 -12.438,-0.697 -34.434,-9.031 -66.386,-22.914 -92.274,-48.303 -29.533,-28.963 -49.273,-63.216 -56.883,-104.22 0,0 -5.974,-39.522 -2.243,-69.265 2.929,-23.345 9.614,-45.408 19.095,-66.841 13.365,-30.215 35.786,-53.174 59.231,-75.407 21.401,-20.294 48.104,-30.57 75.803,-37.252 42.321,-10.208 84.54,-7.233 125.824,6.911 10.347,3.545 20.731,7.025 30.896,11.047 28.488,11.272 54.678,26.413 74.292,50.409 20.106,24.598 35.065,52.239 41.854,83.59 C -1.333,-23.818 2.662,-12.137 0,0" style="fill:#fc0101;fill-opacity:1;fill-rule:nonzero;stroke:none" id="path24"/>
        </g>
        <g id="g26" transform="translate(590.1367,649.2679)">
          <path d="m 0,0 c -0.4,2.866 -2.361,4.682 -5.096,5.135 -5.49,0.911 -11.02,1.631 -16.559,2.171 -1.613,0.157 -4.155,0.99 -4.777,-1.097 -0.567,-1.902 1.649,-2.821 3.239,-3.646 12.815,-6.656 24.912,-14.463 36.784,-22.632 1.695,-1.167 3.387,-2.341 5.075,-3.52 2.581,0.176 5.162,0.352 7.743,0.529 -4.194,4.065 -9.61,6.191 -14.494,9.164 C 6.445,-10.567 1.009,-7.22 0,0" style="fill:#fc0101;fill-opacity:1;fill-rule:nonzero;stroke:none" id="path28"/>
        </g>
        <g id="g30" transform="translate(390.3764,438.9285)">
          <path d="m 0,0 c -0.929,-0.615 -2.046,-0.923 -3.349,-0.923 -1.305,0 -2.499,0.264 -3.585,0.793 -1.195,0.572 -2.077,1.347 -2.644,2.327 -0.435,0.739 -0.791,1.828 -1.068,3.27 h -0.688 v -7.658 h 0.688 c 0.132,0.834 0.5,1.252 1.104,1.252 0.41,0 1.144,-0.158 2.205,-0.472 1.206,-0.368 1.99,-0.579 2.352,-0.634 0.638,-0.097 1.308,-0.146 2.007,-0.146 2.085,0 3.87,0.549 5.352,1.649 1.58,1.185 2.37,2.708 2.37,4.564 0,0.891 -0.224,1.741 -0.669,2.555 C 3.52,7.565 2.55,8.489 1.164,9.346 c -0.543,0.341 -1.784,0.983 -3.725,1.927 -2.797,1.374 -4.575,2.473 -5.334,3.297 -0.518,0.572 -0.777,1.192 -0.777,1.862 0,1.001 0.457,1.835 1.374,2.505 0.855,0.616 1.843,0.924 2.963,0.924 1.109,0 2.182,-0.259 3.218,-0.777 1.964,-0.979 3.151,-2.862 3.561,-5.646 h 0.688 v 7.724 H 2.444 C 2.238,20.315 1.822,19.893 1.195,19.893 c -0.266,0 -0.743,0.135 -1.431,0.406 -1.448,0.576 -2.83,0.863 -4.146,0.863 -1.943,0 -3.609,-0.534 -4.996,-1.599 -1.461,-1.121 -2.191,-2.549 -2.191,-4.285 0,-1.803 0.906,-3.352 2.719,-4.648 0.871,-0.626 2.27,-1.415 4.198,-2.365 C -2.725,7.315 -1.344,6.548 -0.51,5.966 0.856,5.021 1.539,3.944 1.539,2.736 1.539,1.582 1.025,0.67 0,0" style="fill:#ffffff;fill-opacity:1;fill-rule:nonzero;stroke:none" id="path32"/>
        </g>
        <g id="g34" transform="translate(401.4565,441.408)">
          <path d="m 0,0 c 1.255,-3.114 4.272,-4.671 9.053,-4.671 2.462,0 4.41,0.444 5.847,1.333 1.51,0.931 2.529,2.153 3.06,3.666 0.362,1.075 0.544,2.643 0.544,4.704 v 9.044 c 0,1.228 0.126,2.017 0.379,2.368 0.532,0.735 1.274,1.101 2.227,1.101 h 0.924 v 0.626 h -8.672 v -0.626 h 0.923 c 0.929,0 1.629,-0.241 2.1,-0.724 0.338,-0.35 0.508,-1.223 0.508,-2.615 V 5.171 c 0,-2.37 -0.231,-4.048 -0.691,-5.035 -0.52,-1.109 -1.488,-1.97 -2.904,-2.584 -1.235,-0.549 -2.578,-0.823 -4.03,-0.823 -2.396,0 -4.12,0.719 -5.174,2.155 -0.81,1.097 -1.216,2.963 -1.216,5.596 v 9.726 c 0,1.25 0.152,2.073 0.456,2.467 0.436,0.582 1.165,0.872 2.183,0.872 h 0.947 v 0.626 H -4.165 v -0.626 h 0.929 c 1.116,0 1.868,-0.317 2.256,-0.954 0.268,-0.448 0.401,-1.244 0.401,-2.383 V 5.492 C -0.579,2.795 -0.387,0.964 0,0" style="fill:#ffffff;fill-opacity:1;fill-rule:nonzero;stroke:none" id="path36"/>
        </g>
        <g id="g38" transform="translate(437.7763,438.9285)">
          <path d="m 0,0 c -0.929,-0.615 -2.046,-0.923 -3.349,-0.923 -1.304,0 -2.499,0.264 -3.585,0.793 -1.195,0.572 -2.077,1.347 -2.644,2.327 -0.435,0.739 -0.791,1.828 -1.068,3.27 h -0.688 v -7.658 h 0.688 c 0.132,0.834 0.5,1.252 1.104,1.252 0.41,0 1.145,-0.158 2.205,-0.472 1.206,-0.368 1.99,-0.579 2.352,-0.634 0.638,-0.097 1.308,-0.146 2.007,-0.146 2.085,0 3.87,0.549 5.352,1.649 1.58,1.185 2.37,2.708 2.37,4.564 0,0.891 -0.224,1.741 -0.669,2.555 -0.554,0.988 -1.525,1.912 -2.911,2.769 -0.543,0.341 -1.784,0.983 -3.725,1.927 -2.797,1.374 -4.575,2.473 -5.334,3.297 -0.518,0.572 -0.777,1.192 -0.777,1.862 0,1.001 0.457,1.835 1.374,2.505 0.855,0.616 1.843,0.924 2.963,0.924 1.109,0 2.182,-0.259 3.218,-0.777 1.964,-0.979 3.151,-2.862 3.561,-5.646 h 0.688 v 7.724 H 2.444 C 2.238,20.315 1.822,19.893 1.195,19.893 c -0.266,0 -0.743,0.135 -1.43,0.406 -1.449,0.576 -2.83,0.863 -4.147,0.863 -1.943,0 -3.609,-0.534 -4.996,-1.599 -1.461,-1.121 -2.191,-2.549 -2.191,-4.285 0,-1.803 0.906,-3.352 2.719,-4.648 0.871,-0.626 2.27,-1.415 4.198,-2.365 C -2.725,7.315 -1.344,6.548 -0.51,5.966 0.856,5.021 1.539,3.944 1.539,2.736 1.539,1.582 1.025,0.67 0,0" style="fill:#ffffff;fill-opacity:1;fill-rule:nonzero;stroke:none" id="path40"/>
        </g>
        <g id="g42" transform="translate(467.0883,457.2601)">
          <path d="m 0,0 c 0.122,0.647 0.441,1.091 0.957,1.333 0.514,0.24 1.058,0.36 1.627,0.36 H 3.458 V 2.319 H -7.061 V 1.693 h 0.874 c 1.285,0 2.093,-0.366 2.419,-1.101 0.159,-0.361 0.237,-1.113 0.237,-2.253 v -6.378 h -11.425 v 6.378 c 0,0.856 0.025,1.409 0.073,1.661 0.122,0.647 0.441,1.091 0.957,1.333 0.514,0.24 1.058,0.36 1.629,0.36 h 0.891 V 2.319 H -21.943 V 1.693 h 0.873 c 0.594,0 1.153,-0.131 1.674,-0.395 0.376,-0.186 0.625,-0.422 0.747,-0.706 0.157,-0.361 0.235,-1.113 0.235,-2.253 v -14.388 c 0,-1.347 -0.145,-2.192 -0.436,-2.531 -0.461,-0.538 -1.201,-0.806 -2.22,-0.806 h -0.873 v -0.626 h 10.537 v 0.626 h -0.891 c -1.287,0 -2.094,0.366 -2.422,1.101 -0.158,0.362 -0.237,1.108 -0.237,2.236 v 6.791 h 11.425 v -6.791 c 0,-1.337 -0.151,-2.18 -0.454,-2.531 -0.461,-0.538 -1.196,-0.806 -2.202,-0.806 h -0.874 v -0.626 H 3.458 v 0.626 H 2.584 c -0.594,0 -1.152,0.131 -1.673,0.395 -0.376,0.186 -0.625,0.422 -0.747,0.706 -0.158,0.362 -0.237,1.108 -0.237,2.236 v 14.388 c 0,0.877 0.025,1.43 0.073,1.661" style="fill:#ffffff;fill-opacity:1;fill-rule:nonzero;stroke:none" id="path44"/>
        </g>
        <g id="g46" transform="translate(479.6557,458.1483)">
          <path d="M 0,0 C 0.46,0.537 1.194,0.805 2.202,0.805 H 3.094 V 1.431 H -7.444 V 0.805 h 0.873 c 0.595,0 1.154,-0.131 1.675,-0.395 0.376,-0.186 0.625,-0.422 0.746,-0.706 0.157,-0.361 0.237,-1.108 0.237,-2.236 v -14.405 c 0,-1.348 -0.147,-2.192 -0.437,-2.531 -0.462,-0.538 -1.201,-0.806 -2.221,-0.806 H -7.444 V -20.9 H 3.094 v 0.626 H 2.202 c -1.287,0 -2.093,0.366 -2.421,1.101 -0.157,0.362 -0.236,1.108 -0.236,2.236 v 14.405 c 0,1.337 0.151,2.18 0.455,2.532" style="fill:#ffffff;fill-opacity:1;fill-rule:nonzero;stroke:none" id="path48"/>
        </g>
        <g id="g50" transform="translate(498.9355,448.0189)">
          <path d="m 0,0 c 0.594,0.098 1.665,0.147 3.215,0.147 1.732,0 3.185,-0.229 4.36,-0.69 2.217,-0.866 3.324,-2.328 3.324,-4.39 0,-1.567 -0.718,-2.766 -2.153,-3.6 C 7.521,-9.234 5.994,-9.585 4.164,-9.585 2.793,-9.585 1.406,-9.438 0,-9.141 Z m 0,10.112 c 0.969,0.242 2.06,0.362 3.271,0.362 1.854,0 3.41,-0.357 4.669,-1.072 C 9.43,8.555 10.175,7.333 10.175,5.738 10.175,4.891 9.941,4.111 9.473,3.396 8.539,1.988 6.527,1.284 3.437,1.284 2.042,1.284 0.897,1.361 0,1.515 Z M -3.875,-9.257 c -0.434,-0.592 -1.17,-0.888 -2.208,-0.888 h -0.924 v -0.626 H 4.581 c 2.764,0 4.822,0.236 6.174,0.708 1.255,0.429 2.281,1.126 3.078,2.092 0.833,1.01 1.249,2.114 1.249,3.31 0,1.46 -0.584,2.696 -1.751,3.706 -0.841,0.724 -2.112,1.251 -3.808,1.58 2.946,0.868 4.418,2.526 4.418,4.974 0,1.45 -0.546,2.673 -1.639,3.672 -0.978,0.901 -2.288,1.532 -3.93,1.895 -1.208,0.263 -2.796,0.395 -4.764,0.395 H -7.007 v -0.626 h 0.924 c 0.929,0 1.63,-0.242 2.1,-0.724 0.35,-0.361 0.525,-1.232 0.525,-2.614 V -6.808 c 0,-1.259 -0.139,-2.076 -0.417,-2.449" style="fill:#ffffff;fill-opacity:1;fill-rule:nonzero;stroke:none" id="path52"/>
        </g>
        <g id="g54" transform="translate(524.0649,445.9432)">
          <path d="M 0,0 4.273,9.025 8.438,0 Z m 8.654,-8.069 v -0.626 h 9.687 v 0.626 c -1.171,0.065 -2.082,0.444 -2.734,1.135 -0.41,0.428 -0.904,1.267 -1.484,2.517 L 5.577,14.147 H 4.943 L -3.692,-4.219 C -4.453,-5.842 -5.135,-6.912 -5.739,-7.427 -6.041,-7.691 -6.704,-7.905 -7.731,-8.069 V -8.695 H 0 v 0.626 c -1.895,0.12 -2.842,0.586 -2.842,1.397 0,0.426 0.205,1.073 0.615,1.938 l 1.666,3.515 h 9.505 l 1.485,-3.203 c 0.483,-1.041 0.724,-1.802 0.724,-2.284 0,-0.833 -0.832,-1.287 -2.499,-1.363" style="fill:#ffffff;fill-opacity:1;fill-rule:nonzero;stroke:none" id="path56"/>
        </g>
        <g id="g58" transform="translate(550.4277,458.0311)">
          <path d="m 0,0 c 1.2,0.208 2.151,0.313 2.854,0.313 1.577,0 2.851,-0.43 3.82,-1.292 0.97,-0.862 1.455,-2.001 1.455,-3.418 0,-1.691 -0.752,-2.965 -2.256,-3.82 -1.261,-0.736 -2.879,-1.104 -4.855,-1.104 -0.109,0 -0.279,0.006 -0.51,0.016 l -0.508,0 z m 1.079,-10.358 c 0.39,0 0.897,0.01 1.519,0.033 l 8.31,-10.458 h 6.546 v 0.626 c -1.485,0.143 -2.698,0.537 -3.64,1.186 -0.712,0.472 -1.581,1.36 -2.607,2.668 l -5.07,6.406 c 4.031,0.811 6.048,2.713 6.048,5.707 0,1.281 -0.429,2.389 -1.287,3.322 C 9.895,0.205 8.524,0.913 6.784,1.253 5.757,1.45 4.15,1.548 1.964,1.548 H -6.989 V 0.922 h 0.928 c 0.934,0 1.638,-0.241 2.112,-0.723 0.338,-0.34 0.508,-1.211 0.508,-2.614 V -16.82 c 0,-1.26 -0.126,-2.066 -0.382,-2.416 -0.448,-0.614 -1.194,-0.921 -2.238,-0.921 h -0.928 v -0.626 H 3.548 v 0.626 H 2.584 c -0.91,0 -1.602,0.241 -2.074,0.724 C 0.17,-19.082 0,-18.208 0,-16.814 v 6.489 c 0.39,-0.023 0.75,-0.033 1.079,-0.033" style="fill:#ffffff;fill-opacity:1;fill-rule:nonzero;stroke:none" id="path60"/>
        </g>
        <g id="g62" transform="translate(533.7041,615.1829)">
          <path d="M 0,0 C -4.027,-0.281 -7.867,-2.407 -12.791,-1.202 -8.837,1.487 -4.92,2.451 -0.947,3.201 0.048,3.388 1.529,4.139 1.941,2.388 2.276,0.96 1.315,0.092 0,0 m 0.599,-10.849 c -4.516,0.144 -8.817,-2.142 -14.785,-1.183 5.007,4.375 10.034,3.142 14.445,4.158 0.903,0.209 1.475,-0.499 1.609,-1.354 0.144,-0.921 -0.418,-1.648 -1.269,-1.621 m 52.425,-41.869 c 3.789,1.599 6.99,4.808 4.558,9.461 -2.907,5.561 -6.828,10.481 -11.769,14.486 -1.445,-1.381 -0.774,-2.601 -0.739,-3.706 0.339,-10.732 -1.384,-12.211 -12.076,-10.281 -4.561,0.824 -7.545,5.165 -7.003,11.411 0.793,9.131 4.602,16.454 13.839,19.828 1.88,0.687 4.069,1.213 4.011,3.738 -0.057,2.46 -2.221,3.202 -4.109,3.716 -5.053,1.374 -9.882,3.128 -15.137,-0.56 -3.43,-2.407 -7.951,-3.467 -12.665,-2.247 6.487,2.904 10.979,9.594 19.435,8.811 6.407,-0.593 12.694,0.97 18.717,3.315 2.138,0.832 4.231,1.927 3.955,4.562 -0.293,2.794 -2.487,3.886 -5.063,4.259 -5.099,0.739 -10.156,2.098 -14.752,-2.048 -1.324,-1.195 -3.644,-2.422 -5.986,-1.132 0.434,3.772 1.962,6.999 3.906,10.032 3.807,5.938 3.504,7.154 -3.108,10.038 -2.174,0.948 -4.477,1.775 -6.805,2.164 -5.851,0.98 -7.487,-0.812 -4.654,-5.97 4.471,-8.144 0.552,-15.108 -1.549,-23.355 -2.709,6.589 -8.864,9.414 -14.653,7.422 -1.294,-0.445 -2.71,-1.58 -3.363,0.498 -0.519,1.652 0.861,2.564 2.188,3.072 2.043,0.783 4.199,1.27 6.238,2.061 3.022,1.172 7.432,1.509 7.405,5.618 -0.033,4.975 -5.179,3.723 -7.994,4.231 -3.614,0.652 -7.014,-0.198 -4.427,5.355 0.911,1.955 -0.922,3.193 -2.842,3.748 -2.296,0.663 -4.551,1.504 -6.88,2.007 -1.477,0.319 -3.363,1.095 -4.464,-0.421 -0.882,-1.214 0.252,-2.624 0.742,-3.902 3.821,-9.955 3.113,-11.489 -6.921,-12.612 -3.867,-0.432 -3.775,-1.698 -2.272,-4.501 2.388,-4.452 7.044,-5.381 11.841,-7.327 -5.758,-3.328 -11.821,-2.768 -17.578,-5.291 5.877,-5.8 4.386,-13.485 5.823,-20.406 1.206,-5.811 3.49,-7.271 8.689,-5.086 0.897,0.377 1.882,0.81 2.42,-1.046 -4.466,-3.64 -9.712,-5.511 -15.514,-6.109 -1.869,-0.193 -4.679,0.909 -5.305,-1.322 -0.742,-2.641 1.913,-3.88 3.913,-5.282 2.271,-1.592 4.285,-1.664 6.622,-0.369 3.108,1.724 6.296,3.297 10.293,3.877 -0.476,-4.958 -0.936,-9.707 -1.386,-14.457 -0.46,-4.875 3.137,-7.392 6.656,-7.664 3.449,-0.266 2.755,4.009 2.991,6.54 0.258,2.772 0.098,5.592 0.006,8.388 -0.291,8.849 -0.326,8.947 8.407,10.21 2.992,0.433 4.261,2.357 4.459,4.763 0.223,2.719 -2.598,2.812 -4.329,3.157 -2.699,0.536 -5.531,0.412 -9.637,0.642 4.687,3.248 9.401,-0.1 12.994,4.271 2.275,2.769 6.849,-2.89 11.205,-1.219 -1.761,-7.133 -2.678,-13.641 -2.672,-20.259 0.007,-7.721 3.72,-13.88 10.918,-16.186 7.783,-2.493 15.862,-2.112 23.421,1.077" style="fill:#ffffff;fill-opacity:1;fill-rule:nonzero;stroke:none" id="path64"/>
        </g>
        <g id="g66" transform="translate(533.7041,615.1829)">
          <path d="M 0,0 C -4.027,-0.281 -7.867,-2.407 -12.791,-1.202 -8.837,1.487 -4.92,2.451 -0.947,3.201 0.048,3.388 1.529,4.139 1.941,2.388 2.276,0.96 1.315,0.092 0,0 Z m 0.599,-10.849 c -4.516,0.144 -8.817,-2.142 -14.785,-1.183 5.007,4.375 10.034,3.142 14.445,4.158 0.903,0.209 1.475,-0.499 1.609,-1.354 0.144,-0.921 -0.418,-1.648 -1.269,-1.621 z m 52.425,-41.869 c 3.789,1.599 6.99,4.808 4.558,9.461 -2.907,5.561 -6.828,10.481 -11.769,14.486 -1.445,-1.381 -0.774,-2.601 -0.739,-3.706 0.339,-10.732 -1.384,-12.211 -12.076,-10.281 -4.561,0.824 -7.545,5.165 -7.003,11.411 0.793,9.131 4.602,16.454 13.839,19.828 1.88,0.687 4.069,1.213 4.011,3.738 -0.057,2.46 -2.221,3.202 -4.109,3.716 -5.053,1.374 -9.882,3.128 -15.137,-0.56 -3.43,-2.407 -7.951,-3.467 -12.665,-2.247 6.487,2.904 10.979,9.594 19.435,8.811 6.407,-0.593 12.694,0.97 18.717,3.315 2.138,0.832 4.231,1.927 3.955,4.562 -0.293,2.794 -2.487,3.886 -5.063,4.259 -5.099,0.739 -10.156,2.098 -14.752,-2.048 -1.324,-1.195 -3.644,-2.422 -5.986,-1.132 0.434,3.772 1.962,6.999 3.906,10.032 3.807,5.938 3.504,7.154 -3.108,10.038 -2.174,0.948 -4.477,1.775 -6.805,2.164 -5.851,0.98 -7.487,-0.812 -4.654,-5.97 4.471,-8.144 0.552,-15.108 -1.549,-23.355 -2.709,6.589 -8.864,9.414 -14.653,7.422 -1.294,-0.445 -2.71,-1.58 -3.363,0.498 -0.519,1.652 0.861,2.564 2.188,3.072 2.043,0.783 4.199,1.27 6.238,2.061 3.022,1.172 7.432,1.509 7.405,5.618 -0.033,4.975 -5.179,3.723 -7.994,4.231 -3.614,0.652 -7.014,-0.198 -4.427,5.355 0.911,1.955 -0.922,3.193 -2.842,3.748 -2.296,0.663 -4.551,1.504 -6.88,2.007 -1.477,0.319 -3.363,1.095 -4.464,-0.421 -0.882,-1.214 0.252,-2.624 0.742,-3.902 3.821,-9.955 3.113,-11.489 -6.921,-12.612 -3.867,-0.432 -3.775,-1.698 -2.272,-4.501 2.388,-4.452 7.044,-5.381 11.841,-7.327 -5.758,-3.328 -11.821,-2.768 -17.578,-5.291 5.877,-5.8 4.386,-13.485 5.823,-20.406 1.206,-5.811 3.49,-7.271 8.689,-5.086 0.897,0.377 1.882,0.81 2.42,-1.046 -4.466,-3.64 -9.712,-5.511 -15.514,-6.109 -1.869,-0.193 -4.679,0.909 -5.305,-1.322 -0.742,-2.641 1.913,-3.88 3.913,-5.282 2.271,-1.592 4.285,-1.664 6.622,-0.369 3.108,1.724 6.296,3.297 10.293,3.877 -0.476,-4.958 -0.936,-9.707 -1.386,-14.457 -0.46,-4.875 3.137,-7.392 6.656,-7.664 3.449,-0.266 2.755,4.009 2.991,6.54 0.258,2.772 0.098,5.592 0.006,8.388 -0.291,8.849 -0.326,8.947 8.407,10.21 2.992,0.433 4.261,2.357 4.459,4.763 0.223,2.719 -2.598,2.812 -4.329,3.157 -2.699,0.536 -5.531,0.412 -9.637,0.642 4.687,3.248 9.401,-0.1 12.994,4.271 2.275,2.769 6.849,-2.89 11.205,-1.219 -1.761,-7.133 -2.678,-13.641 -2.672,-20.259 0.007,-7.721 3.72,-13.88 10.918,-16.186 7.783,-2.493 15.862,-2.112 23.421,1.077 z" style="fill:none;stroke:#231815;stroke-width:0.5;stroke-linecap:round;stroke-linejoin:round;stroke-miterlimit:10;stroke-dasharray:none;stroke-opacity:1" id="path68"/>
        </g>
        <g id="g70" transform="translate(635.3052,608.9559)">
          <path d="M 0,0 C 1.496,-2.187 2.338,-3.432 3.193,-4.668 8.824,-12.807 8.706,-13.304 -0.914,-19.342 -0.603,-12.767 -0.328,-6.938 0,0 m 10.953,18.504 c 3.83,-1.385 7.093,-3.941 11.793,-2.438 C 20.905,9.036 18.031,3.885 14.307,-1.577 10.614,3.659 5.203,6.192 -0.836,8.99 c 4.701,3.086 11.748,1.853 11.789,9.514 M -25.9,14.038 c 0.216,-0.894 0.458,-1.777 0.755,-2.622 0.198,-0.564 0.421,-1.111 0.677,-1.633 1.024,-2.089 2.582,-3.782 5.238,-4.561 4.638,-1.362 3.439,-3.429 1.637,-5.888 -5.328,-7.272 -8.85,-15.788 -16.511,-22.384 5.108,-1.136 9.054,-0.448 12.835,0.573 6.973,1.882 6.202,10.134 11.185,14.259 0.553,-8.233 -0.338,-16.081 -0.905,-23.928 -0.284,-3.936 0.205,-7.607 2.654,-10.767 1.272,-1.641 2.178,-4.44 4.837,-3.721 2.862,0.774 3.692,3.441 3.587,6.226 -0.157,4.187 -0.317,8.379 -0.7,12.549 -0.329,3.576 0.818,5.228 4.64,4.744 6.254,-0.79 10.627,2.634 14.45,6.949 1.791,2.02 3.34,4.254 5.462,6.988 1.092,-9.339 2.288,-17.816 0.373,-26.362 -0.681,-3.037 -0.028,-5.994 0.853,-8.854 0.954,-3.095 2.275,-6.626 6.189,-6.118 3.796,0.493 4.515,4.124 4.659,7.4 0.379,8.593 0.019,17.18 -0.829,25.734 -0.333,3.357 -0.359,6.588 1.006,10.16 4.93,-4.041 8.943,-8.404 12.811,-12.947 2.58,-3.03 5.937,-5.643 9.838,-2.997 4.355,2.953 2.501,7.121 0.404,10.659 -4.16,7.018 -10.198,11.407 -18.269,13.399 -6.654,1.643 -8.676,6.692 -5.531,12.386 0.937,1.697 1.45,3.371 0.737,5.121 -1.414,3.469 0.828,4.139 3.344,4.729 4.154,0.972 8.35,0.329 12.529,0.396 2.132,0.034 4.569,-0.189 5.458,2.596 0.938,2.932 -1.018,4.445 -2.985,5.885 -3.916,2.865 -8.163,3.655 -13,2.656 C 31.386,32.57 21.215,30.536 10.978,28.997 6.066,28.258 3.218,27.312 7.056,21.986 c -7.602,-0.624 -7.63,-0.617 -5.832,6.198 0.655,2.485 1.462,4.931 2.224,7.388 0.437,1.407 0.668,2.888 -0.737,3.774 -4.022,2.534 -7.795,5.555 -12.568,6.708 -1.467,0.355 -2.953,0.246 -3.958,-0.741 -1.266,-1.241 -0.218,-2.677 0.459,-3.823 2.508,-4.249 3.615,-8.935 3.556,-13.725 -0.112,-9.015 2.697,-8.821 -8.96,-10.513 -2.581,-0.177 -5.162,-0.353 -7.743,-0.529 0.196,-0.888 0.386,-1.792 0.603,-2.685" style="fill:#ffffff;fill-opacity:1;fill-rule:nonzero;stroke:none" id="path72"/>
        </g>
        <g id="g74" transform="translate(635.3052,608.9559)">
          <path d="M 0,0 C 1.496,-2.187 2.338,-3.432 3.193,-4.668 8.824,-12.807 8.706,-13.304 -0.914,-19.342 -0.603,-12.767 -0.328,-6.938 0,0 Z m 10.953,18.504 c 3.83,-1.385 7.093,-3.941 11.793,-2.438 C 20.905,9.036 18.031,3.885 14.307,-1.577 10.614,3.659 5.203,6.192 -0.836,8.99 c 4.701,3.086 11.748,1.853 11.789,9.514 z M -25.9,14.038 c 0.216,-0.894 0.458,-1.777 0.755,-2.622 0.198,-0.564 0.421,-1.111 0.677,-1.633 1.024,-2.089 2.582,-3.782 5.238,-4.561 4.638,-1.362 3.439,-3.429 1.637,-5.888 -5.328,-7.272 -8.85,-15.788 -16.511,-22.384 5.108,-1.136 9.054,-0.448 12.835,0.573 6.973,1.882 6.202,10.134 11.185,14.259 0.553,-8.233 -0.338,-16.081 -0.905,-23.928 -0.284,-3.936 0.205,-7.607 2.654,-10.767 1.272,-1.641 2.178,-4.44 4.837,-3.721 2.862,0.774 3.692,3.441 3.587,6.226 -0.157,4.187 -0.317,8.379 -0.7,12.549 -0.329,3.576 0.818,5.228 4.64,4.744 6.254,-0.79 10.627,2.634 14.45,6.949 1.791,2.02 3.34,4.254 5.462,6.988 1.092,-9.339 2.288,-17.816 0.373,-26.362 -0.681,-3.037 -0.028,-5.994 0.853,-8.854 0.954,-3.095 2.275,-6.626 6.189,-6.118 3.796,0.493 4.515,4.124 4.659,7.4 0.379,8.593 0.019,17.18 -0.829,25.734 -0.333,3.357 -0.359,6.588 1.006,10.16 4.93,-4.041 8.943,-8.404 12.811,-12.947 2.58,-3.03 5.937,-5.643 9.838,-2.997 4.355,2.953 2.501,7.121 0.404,10.659 -4.16,7.018 -10.198,11.407 -18.269,13.399 -6.654,1.643 -8.676,6.692 -5.531,12.386 0.937,1.697 1.45,3.371 0.737,5.121 -1.414,3.469 0.828,4.139 3.344,4.729 4.154,0.972 8.35,0.329 12.529,0.396 2.132,0.034 4.569,-0.189 5.458,2.596 0.938,2.932 -1.018,4.445 -2.985,5.885 -3.916,2.865 -8.163,3.655 -13,2.656 C 31.386,32.57 21.215,30.536 10.978,28.997 6.066,28.258 3.218,27.312 7.056,21.986 c -7.602,-0.624 -7.63,-0.617 -5.832,6.198 0.655,2.485 1.462,4.931 2.224,7.388 0.437,1.407 0.668,2.888 -0.737,3.774 -4.022,2.534 -7.795,5.555 -12.568,6.708 -1.467,0.355 -2.953,0.246 -3.958,-0.741 -1.266,-1.241 -0.218,-2.677 0.459,-3.823 2.508,-4.249 3.615,-8.935 3.556,-13.725 -0.112,-9.015 2.697,-8.821 -8.96,-10.513 -2.581,-0.177 -5.162,-0.353 -7.743,-0.529 0.196,-0.888 0.386,-1.792 0.603,-2.685 z" style="fill:none;stroke:#231815;stroke-width:0.5;stroke-linecap:round;stroke-linejoin:round;stroke-miterlimit:10;stroke-dasharray:none;stroke-opacity:1" id="path76"/>
        </g>
        <g id="g78" transform="translate(546.1587,521.9119)">
          <path d="m 0,0 c 4.999,-8.413 11.282,-16.704 7.561,-27.685 -1.186,-3.502 -3.165,-6.975 -2.023,-11.218 2.392,0.547 3.982,1.437 4.639,3.246 4.228,11.621 8.611,23.216 8.247,35.895 -0.084,2.951 -0.888,6.126 -3.504,7.219 -8.289,3.461 -15.968,9.085 -25.442,8.819 -6.959,-0.196 -13.8,0.765 -20.698,1.126 -3.255,0.171 -6.559,-0.369 -7.465,4.539 -0.44,2.385 -3.526,2.823 -6.102,1.779 -1.834,-0.742 -3.658,-1.638 -5.575,-2.018 -3.488,-0.691 -5.131,-3.125 -4.202,-6.011 1.252,-3.89 -0.655,-5.602 -3.34,-7.131 -3.914,-2.229 -1.726,-5.647 -1.659,-8.515 0.04,-1.724 0.153,-4.567 2.95,-4.329 3.651,0.311 3.703,-2.035 3.986,-4.408 0.916,-7.659 3.093,-15.265 -0.023,-23.005 -0.997,-2.478 -0.613,-5.396 2.875,-6.065 3.494,-0.671 2.917,2.45 3.55,4.312 0.446,1.311 0.704,2.694 0.952,4.062 1.599,8.823 3.044,17.677 4.811,26.466 0.83,4.13 7.758,8.761 11.123,7.883 5.125,-1.336 13.458,-11.738 14.109,-17.108 0.958,-7.906 0.424,-16.047 3.722,-23.778 1.041,2.777 1.344,5.605 1.662,8.431 0.878,7.8 -0.899,15.525 -0.63,23.297 0.071,2.017 -1.005,5 1.53,5.821 C -5.917,2.604 -1.586,2.668 0,0" style="fill:#ffffff;fill-opacity:1;fill-rule:nonzero;stroke:none" id="path80"/>
        </g>
        <g id="g82" transform="translate(546.1587,521.9119)">
          <path d="m 0,0 c 4.999,-8.413 11.282,-16.704 7.561,-27.685 -1.186,-3.502 -3.165,-6.975 -2.023,-11.218 2.392,0.547 3.982,1.437 4.639,3.246 4.228,11.621 8.611,23.216 8.247,35.895 -0.084,2.951 -0.888,6.126 -3.504,7.219 -8.289,3.461 -15.968,9.085 -25.442,8.819 -6.959,-0.196 -13.8,0.765 -20.698,1.126 -3.255,0.171 -6.559,-0.369 -7.465,4.539 -0.44,2.385 -3.526,2.823 -6.102,1.779 -1.834,-0.742 -3.658,-1.638 -5.575,-2.018 -3.488,-0.691 -5.131,-3.125 -4.202,-6.011 1.252,-3.89 -0.655,-5.602 -3.34,-7.131 -3.914,-2.229 -1.726,-5.647 -1.659,-8.515 0.04,-1.724 0.153,-4.567 2.95,-4.329 3.651,0.311 3.703,-2.035 3.986,-4.408 0.916,-7.659 3.093,-15.265 -0.023,-23.005 -0.997,-2.478 -0.613,-5.396 2.875,-6.065 3.494,-0.671 2.917,2.45 3.55,4.312 0.446,1.311 0.704,2.694 0.952,4.062 1.599,8.823 3.044,17.677 4.811,26.466 0.83,4.13 7.758,8.761 11.123,7.883 5.125,-1.336 13.458,-11.738 14.109,-17.108 0.958,-7.906 0.424,-16.047 3.722,-23.778 1.041,2.777 1.344,5.605 1.662,8.431 0.878,7.8 -0.899,15.525 -0.63,23.297 0.071,2.017 -1.005,5 1.53,5.821 C -5.917,2.604 -1.586,2.668 0,0 Z" style="fill:none;stroke:#231815;stroke-width:0.5;stroke-linecap:round;stroke-linejoin:round;stroke-miterlimit:10;stroke-dasharray:none;stroke-opacity:1" id="path84"/>
        </g>
        <g id="g86" transform="translate(580.1772,498.6712)">
          <path d="m 0,0 c 2.159,7.339 4.748,14.551 7.185,21.807 0.425,1.266 1.374,0.994 2.4,0.847 0.808,-0.115 1.56,-0.268 2.257,-0.461 0.591,-0.163 1.135,-0.361 1.649,-0.583 0.092,-0.04 0.191,-0.073 0.28,-0.115 3.538,-1.642 5.171,-4.783 5.246,-9.868 C 18.865,10.145 19.463,8.21 18.146,7.271 17.958,7.137 17.731,7.023 17.457,6.934 12.438,5.296 10.139,1.25 7.678,-2.89 6.39,-5.056 4.229,-7.888 1.711,-6.942 -0.818,-5.992 -0.699,-2.375 0,0 m 7.156,-12.278 c 4.705,0.793 9.178,2.798 12.499,6.517 5.488,6.145 9.777,13.117 13.226,20.553 1.565,3.374 1.22,7.01 -0.924,10.25 C 25.077,35.436 15.321,40.567 2.929,40.866 -8.196,41.135 -9.793,39.391 -8.51,28.338 c 0.093,-0.794 0.173,-1.59 0.215,-2.388 0.943,-17.932 -2.378,-35.823 -0.879,-47.509 0.987,-18.814 1.632,-31.372 2.324,-43.928 0.099,-1.788 0.48,-3.559 0.644,-5.346 0.105,-1.14 0.646,-1.966 1.704,-2.157 1.174,-0.212 1.751,0.629 2.028,1.695 0.398,1.527 1.081,3.029 1.194,4.575 0.467,6.37 0.509,12.781 1.183,19.126 1.012,9.508 -1.484,19.108 1.087,28.582 0.95,3.502 1.93,6.021 6.166,6.734" style="fill:#ffffff;fill-opacity:1;fill-rule:nonzero;stroke:none" id="path88"/>
        </g>
        <g id="g90" transform="translate(580.1772,498.6712)">
          <path d="m 0,0 c 2.159,7.339 4.748,14.551 7.185,21.807 0.425,1.266 1.374,0.994 2.4,0.847 0.808,-0.115 1.56,-0.268 2.257,-0.461 0.591,-0.163 1.135,-0.361 1.649,-0.583 0.092,-0.04 0.191,-0.073 0.28,-0.115 3.538,-1.642 5.171,-4.783 5.246,-9.868 C 18.865,10.145 19.463,8.21 18.146,7.271 17.958,7.137 17.731,7.023 17.457,6.934 12.438,5.296 10.139,1.25 7.678,-2.89 6.39,-5.056 4.229,-7.888 1.711,-6.942 -0.818,-5.992 -0.699,-2.375 0,0 Z m 7.156,-12.278 c 4.705,0.793 9.178,2.798 12.499,6.517 5.488,6.145 9.777,13.117 13.226,20.553 1.565,3.374 1.22,7.01 -0.924,10.25 C 25.077,35.436 15.321,40.567 2.929,40.866 -8.196,41.135 -9.793,39.391 -8.51,28.338 c 0.093,-0.794 0.173,-1.59 0.215,-2.388 0.943,-17.932 -2.378,-35.823 -0.879,-47.509 0.987,-18.814 1.632,-31.372 2.324,-43.928 0.099,-1.788 0.48,-3.559 0.644,-5.346 0.105,-1.14 0.646,-1.966 1.704,-2.157 1.174,-0.212 1.751,0.629 2.028,1.695 0.398,1.527 1.081,3.029 1.194,4.575 0.467,6.37 0.509,12.781 1.183,19.126 1.012,9.508 -1.484,19.108 1.087,28.582 0.95,3.502 1.93,6.021 6.166,6.734 z" style="fill:none;stroke:#231815;stroke-width:0.5;stroke-linecap:round;stroke-linejoin:round;stroke-miterlimit:10;stroke-dasharray:none;stroke-opacity:1" id="path92"/>
        </g>
        <g id="g94" transform="translate(409.0996,488.9149)">
          <path d="m 0,0 c -3.894,9.043 -5.763,18.829 -13.637,25.648 -5.364,4.645 -4.586,6.678 2.429,8.908 6.083,1.933 12.166,3.603 17.267,7.836 3.658,3.036 3.938,6.255 1.288,9.658 -1.936,2.486 -4.536,4.459 -6.863,6.636 -1.964,1.838 -2.541,-0.063 -3.416,-1.275 -2.671,-3.699 -4.48,-8.054 -8.217,-10.943 -2.042,-1.578 -4.652,-4.26 -6.685,-3.06 -2.363,1.392 -0.413,4.645 0.236,7.022 3.687,13.51 2.439,27.676 5.493,41.282 0.413,1.845 -0.395,3.946 -0.526,5.935 -0.076,1.14 -0.437,1.754 -1.647,2.018 -8.271,1.805 -18.182,-6.955 -17.155,-15.352 0.896,-7.319 2.849,-14.579 1.549,-22.011 -0.985,-5.63 -0.268,-11.176 0.471,-16.694 0.596,-4.446 2.832,-8.769 -1.258,-12.88 -1.354,-1.36 -0.082,-3.387 0.938,-4.93 1.708,-2.585 2.674,-5.66 2.285,-8.52 -0.903,-6.624 0.957,-13.107 0.427,-19.685 -0.122,-1.513 -1.277,-4.099 1.192,-4.563 2.358,-0.442 3.105,1.935 3.828,3.828 1.59,4.168 1.789,8.548 2.135,12.92 0.158,2.011 -0.444,4.212 0.959,6.145 C -10.734,13.593 -7.271,4.808 0,0" style="fill:#ffffff;fill-opacity:1;fill-rule:nonzero;stroke:none" id="path96"/>
        </g>
        <g id="g98" transform="translate(409.0996,488.9149)">
          <path d="m 0,0 c -3.894,9.043 -5.763,18.829 -13.637,25.648 -5.364,4.645 -4.586,6.678 2.429,8.908 6.083,1.933 12.166,3.603 17.267,7.836 3.658,3.036 3.938,6.255 1.288,9.658 -1.936,2.486 -4.536,4.459 -6.863,6.636 -1.964,1.838 -2.541,-0.063 -3.416,-1.275 -2.671,-3.699 -4.48,-8.054 -8.217,-10.943 -2.042,-1.578 -4.652,-4.26 -6.685,-3.06 -2.363,1.392 -0.413,4.645 0.236,7.022 3.687,13.51 2.439,27.676 5.493,41.282 0.413,1.845 -0.395,3.946 -0.526,5.935 -0.076,1.14 -0.437,1.754 -1.647,2.018 -8.271,1.805 -18.182,-6.955 -17.155,-15.352 0.896,-7.319 2.849,-14.579 1.549,-22.011 -0.985,-5.63 -0.268,-11.176 0.471,-16.694 0.596,-4.446 2.832,-8.769 -1.258,-12.88 -1.354,-1.36 -0.082,-3.387 0.938,-4.93 1.708,-2.585 2.674,-5.66 2.285,-8.52 -0.903,-6.624 0.957,-13.107 0.427,-19.685 -0.122,-1.513 -1.277,-4.099 1.192,-4.563 2.358,-0.442 3.105,1.935 3.828,3.828 1.59,4.168 1.789,8.548 2.135,12.92 0.158,2.011 -0.444,4.212 0.959,6.145 C -10.734,13.593 -7.271,4.808 0,0 Z" style="fill:none;stroke:#231815;stroke-width:0.5;stroke-linecap:round;stroke-linejoin:round;stroke-miterlimit:10;stroke-dasharray:none;stroke-opacity:1" id="path100"/>
        </g>
        <g id="g102" transform="translate(461.8076,490.2073)">
          <path d="m 0,0 c -5.997,0.433 -11.021,2.142 -15.872,4.436 -2.265,1.07 -3.226,3.414 -3.105,5.34 0.279,4.401 3.37,7.105 7.42,8.201 3.76,1.018 7.917,3.778 11.306,-0.879 C 2.605,13.171 4.002,8.518 5.044,3.961 6.027,-0.339 1.527,0.992 0,0 M 20.678,4.045 C 17.22,16.107 10.551,26.947 7.483,39.146 c -0.329,1.308 -0.808,3.036 -2.504,2.931 -5.637,-0.349 -9.53,3.09 -13.768,5.903 -8.448,5.607 -22.334,2.88 -27.862,-5.411 -0.903,-1.353 -1.878,-2.92 -0.72,-4.397 1.459,-1.86 2.869,-0.12 4.111,0.605 4.404,2.572 9.219,3.597 15.51,4.249 3.271,0.623 6.641,-1.843 7.454,-5.638 0.837,-3.911 -3.495,-4.653 -6.39,-5.684 -8.337,-2.972 -12.37,-10.068 -16.258,-17.141 -1.342,-2.44 -0.748,-5.404 0.625,-8.067 3.872,-7.514 14.803,-13.118 23.311,-12.865 6.423,0.192 13.097,2.785 19.242,0.101 4.707,-2.055 6.389,1.407 9.222,3.138 3.261,1.993 2.023,4.382 1.222,7.175" style="fill:#ffffff;fill-opacity:1;fill-rule:nonzero;stroke:none" id="path104"/>
        </g>
        <g id="g106" transform="translate(461.8076,490.2073)">
          <path d="m 0,0 c -5.997,0.433 -11.021,2.142 -15.872,4.436 -2.265,1.07 -3.226,3.414 -3.105,5.34 0.279,4.401 3.37,7.105 7.42,8.201 3.76,1.018 7.917,3.778 11.306,-0.879 C 2.605,13.171 4.002,8.518 5.044,3.961 6.027,-0.339 1.527,0.992 0,0 Z M 20.678,4.045 C 17.22,16.107 10.551,26.947 7.483,39.146 c -0.329,1.308 -0.808,3.036 -2.504,2.931 -5.637,-0.349 -9.53,3.09 -13.768,5.903 -8.448,5.607 -22.334,2.88 -27.862,-5.411 -0.903,-1.353 -1.878,-2.92 -0.72,-4.397 1.459,-1.86 2.869,-0.12 4.111,0.605 4.404,2.572 9.219,3.597 15.51,4.249 3.271,0.623 6.641,-1.843 7.454,-5.638 0.837,-3.911 -3.495,-4.653 -6.39,-5.684 -8.337,-2.972 -12.37,-10.068 -16.258,-17.141 -1.342,-2.44 -0.748,-5.404 0.625,-8.067 3.872,-7.514 14.803,-13.118 23.311,-12.865 6.423,0.192 13.097,2.785 19.242,0.101 4.707,-2.055 6.389,1.407 9.222,3.138 3.261,1.993 2.023,4.382 1.222,7.175 z" style="fill:none;stroke:#231815;stroke-width:0.5;stroke-linecap:round;stroke-linejoin:round;stroke-miterlimit:10;stroke-dasharray:none;stroke-opacity:1" id="path108"/>
        </g>
        <g id="g110" transform="translate(655.3428,490.2127)">
          <path d="m 0,0 c -8.547,0.043 -17.712,5 -18.001,9.51 -0.323,5.057 6.481,9.858 14.178,10.003 C -0.051,19.583 5.038,11.97 5.274,5.737 5.409,2.171 3.599,-0.018 0,0 m 12.92,-6.278 c 6.508,-0.707 9.855,4.153 8.282,10.515 -0.984,3.978 -3.614,7.582 -2.94,11.958 -4.814,6.457 -6.97,14.105 -9.544,21.55 -0.576,1.669 -0.598,4.212 -2.542,4.196 -6.058,-0.048 -10.197,3.715 -14.873,6.544 -8.202,4.962 -21.165,2.114 -26.842,-5.79 -1.063,-1.479 -2.329,-3.133 -0.669,-4.761 1.604,-1.574 2.843,0.387 4.143,1.032 5.074,2.518 10.401,4.033 16.086,3.907 3.731,-0.083 5.832,-2.804 6.852,-5.804 0.724,-2.129 -1.814,-3.808 -3.483,-4.043 -7.632,-1.076 -11.025,-7.224 -15.565,-12.115 -5.777,-6.224 -5.818,-12.092 -0.234,-18.345 7.383,-8.27 16.738,-10.003 27.117,-8.793 4.735,0.16 9.441,0.467 14.212,-0.051" style="fill:#ffffff;fill-opacity:1;fill-rule:nonzero;stroke:none" id="path112"/>
        </g>
        <g id="g114" transform="translate(655.3428,490.2127)">
          <path d="m 0,0 c -8.547,0.043 -17.712,5 -18.001,9.51 -0.323,5.057 6.481,9.858 14.178,10.003 C -0.051,19.583 5.038,11.97 5.274,5.737 5.409,2.171 3.599,-0.018 0,0 Z m 12.92,-6.278 c 6.508,-0.707 9.855,4.153 8.282,10.515 -0.984,3.978 -3.614,7.582 -2.94,11.958 -4.814,6.457 -6.97,14.105 -9.544,21.55 -0.576,1.669 -0.598,4.212 -2.542,4.196 -6.058,-0.048 -10.197,3.715 -14.873,6.544 -8.202,4.962 -21.165,2.114 -26.842,-5.79 -1.063,-1.479 -2.329,-3.133 -0.669,-4.761 1.604,-1.574 2.843,0.387 4.143,1.032 5.074,2.518 10.401,4.033 16.086,3.907 3.731,-0.083 5.832,-2.804 6.852,-5.804 0.724,-2.129 -1.814,-3.808 -3.483,-4.043 -7.632,-1.076 -11.025,-7.224 -15.565,-12.115 -5.777,-6.224 -5.818,-12.092 -0.234,-18.345 7.383,-8.27 16.738,-10.003 27.117,-8.793 4.735,0.16 9.441,0.467 14.212,-0.051 z" style="fill:none;stroke:#231815;stroke-width:0.5;stroke-linecap:round;stroke-linejoin:round;stroke-miterlimit:10;stroke-dasharray:none;stroke-opacity:1" id="path116"/>
        </g>
        <g id="g118" transform="translate(687.7432,489.7737)">
          <path d="m 0,0 c -0.252,-1.974 -1.187,-5.289 2.35,-5.736 2.966,-0.376 3.452,2.758 4.752,4.559 0.522,0.723 0.585,1.913 0.553,2.88 -0.239,7.217 1.729,14.152 2.635,21.22 -0.358,4.79 2.376,9.097 2.026,13.941 -0.441,6.107 -3.174,8.345 -11.113,8.184 -5.128,-0.104 -5.144,-4.16 -5.21,-7.652 C -4.101,32.464 -3.733,27.524 -3.562,22.59 -0.829,15.308 1.014,7.934 0,0" style="fill:#ffffff;fill-opacity:1;fill-rule:nonzero;stroke:none" id="path120"/>
        </g>
        <g id="g122" transform="translate(687.7432,489.7737)">
          <path d="m 0,0 c -0.252,-1.974 -1.187,-5.289 2.35,-5.736 2.966,-0.376 3.452,2.758 4.752,4.559 0.522,0.723 0.585,1.913 0.553,2.88 -0.239,7.217 1.729,14.152 2.635,21.22 -0.358,4.79 2.376,9.097 2.026,13.941 -0.441,6.107 -3.174,8.345 -11.113,8.184 -5.128,-0.104 -5.144,-4.16 -5.21,-7.652 C -4.101,32.464 -3.733,27.524 -3.562,22.59 -0.829,15.308 1.014,7.934 0,0 Z" style="fill:none;stroke:#231815;stroke-width:0.5;stroke-linecap:round;stroke-linejoin:round;stroke-miterlimit:10;stroke-dasharray:none;stroke-opacity:1" id="path124"/>
        </g>
        <g id="g126" transform="translate(693.8594,559.6819)">
          <path d="m 0,0 c -6.909,-0.085 -12.827,-4.886 -13.74,-10.849 -0.75,-4.89 2.556,-7.327 6.195,-9.114 4.451,-2.186 9.214,0.15 13.782,6.686 1.701,2.433 5.027,4.734 2.824,8.36 C 6.958,-1.456 3.728,0.418 0,0" style="fill:#ffffff;fill-opacity:1;fill-rule:nonzero;stroke:none" id="path128"/>
        </g>
        <g id="g130" transform="translate(693.8594,559.6819)">
          <path d="m 0,0 c -6.909,-0.085 -12.827,-4.886 -13.74,-10.849 -0.75,-4.89 2.556,-7.327 6.195,-9.114 4.451,-2.186 9.214,0.15 13.782,6.686 1.701,2.433 5.027,4.734 2.824,8.36 C 6.958,-1.456 3.728,0.418 0,0 Z" style="fill:none;stroke:#231815;stroke-width:0.5;stroke-linecap:round;stroke-linejoin:round;stroke-miterlimit:10;stroke-dasharray:none;stroke-opacity:1" id="path132"/>
        </g>
      </g>
    </g>
  </g>
</svg>